{"title":"Love.Is.the.Perfect.Crime.[L.Amour.Est.un.Crime.Parfait].2013.BR","uid":10506934,"size":2129224375,"categoryP":"video","categoryS":"movies","magnet":"?xt=urn:btih:3654f1a46660abc9f7ec85cfc74606ae52ba79d0&amp;dn=Love.Is.the.Perfect.Crime.%5BL.Amour.Est.un.Crime.Parfait%5D.2013.BR&amp;tr=udp%3A%2F%2Ftracker.openbittorrent.com%3A80&amp;tr=udp%3A%2F%2Fopen.demonii.com%3A1337&amp;tr=udp%3A%2F%2Ftracker.coppersurfer.tk%3A6969&amp;tr=udp%3A%2F%2Fexodus.desync.com%3A6969","seeders":18,"leechers":0,"uploader":"lletaif","files":1,"time":1404781937,"description":"Title:\nLove Is the Perfect Crime Aka L'Amour Est un Crime Parfait\n\n\nCountry:\nFrance, 2013\n\n\nLanguage:\nFrench\n\n\nNo Subtitle\n\n\nIMDB: &lt;a href=&quot;\nhttp://www.imdb.com/title/tt3103576/?ref_=fn_al_tt_1&quot; rel=&quot;nofollow&quot; target=&quot;_NEW&quot;&gt;\nhttp://www.imdb.com/title/tt3103576/?ref_=fn_al_tt_1&lt;/a&gt;\n\n\nSynopsis:\nA literature professor at the University of Lausanne, Marc has a reputation for having love affairs with his female students. A few days after the disappearance of one of the most brillant of these, who was his latest conquest, he encounters Anna who is trying to find out more about this beautiful young woman who has disappeared. \n\n\nMedia Info:\n\nGeneral\nUnique ID                                : 219108924896393217373474421864298603371 (0xA4D6D80D5F51E09E827B9F07CA86636B)\nComplete name                            : Love.Is.the.Perfect.Crime.[L.Amour.Est.un.Crime.Parfait].2013.BRRip.x264.HORiZON-ArtSubs.mkv\nFormat                                   : Matroska\nFormat version                           : Version 2\nFile size                                : 1.98 GiB\nDuration                                 : 1h 50mn\nOverall bit rate mode                    : Variable\nOverall bit rate                         : 2 568 Kbps\nMovie name                               : l.amour.est.un.crime.parfait..french.1080p.bluray.x264-lost\nEncoded date                             : UTC 2014-07-05 02:53:20\nWriting application                      : DVDFab 9.1.4.0\nWriting library                          : libebml v0.7.8 + libmatroska v0.8.1\n\nVideo\nID                                       : 1\nFormat                                   : AVC\nFormat/Info                              : Advanced Video Codec\nFormat profile                           : &lt;a class=&quot;__cf_email__&quot; href=&quot;/cdn-cgi/l/email-protection&quot; data-cfemail=&quot;aee6c7c9c6eee29a809f&quot;&gt;[email&amp;#160;protected]&lt;/a&gt;&lt;script cf-hash='f9e31' type=&quot;text/javascript&quot;&gt;\n/* &lt;![CDATA[ */!function(){try{var t=&quot;currentScript&quot;in document?document.currentScript:function(){for(var t=document.getElementsByTagName(&quot;script&quot;),e=t.length;e--;)if(t[e].getAttribute(&quot;cf-hash&quot;))return t[e]}();if(t&amp;&amp;t.previousSibling){var e,r,n,i,c=t.previousSibling,a=c.getAttribute(&quot;data-cfemail&quot;);if(a){for(e=&quot;&quot;,r=parseInt(a.substr(0,2),16),n=2;a.length-n;n+=2)i=parseInt(a.substr(n,2),16)^r,e+=String.fromCharCode(i);e=document.createTextNode(e),c.parentNode.replaceChild(e,c)}}}catch(u){}}();/* ]]&gt; */&lt;/script&gt;\nFormat settings, CABAC                   : Yes\nFormat settings, ReFrames                : 2 frames\nCodec ID                                 : V_MPEG4/ISO/AVC\nDuration                                 : 1h 50mn\nBit rate mode                            : Variable\nBit rate                                 : 2 069 Kbps\nMaximum bit rate                         : 3 208 Kbps\nWidth                                    : 1 280 pixels\nHeight                                   : 524 pixels\nDisplay aspect ratio                     : 2.40:1\nFrame rate mode                          : Constant\nFrame rate                               : 24.000 fps\nColor space                              : YUV\nChroma subsampling                       : 4:2:0\nBit depth                                : 8 bits\nScan type                                : Progressive\nBits/(Pixel*Frame)                       : 0.129\nStream size                              : 1.60 GiB (81%)\nDefault                                  : Yes\nForced                                   : No\n\nAudio\nID                                       : 2\nFormat                                   : AC-3\nFormat/Info                              : Audio Coding 3\nMode extension                           : CM (complete main)\nFormat settings, Endianness              : Big\nCodec ID                                 : A_AC3\nDuration                                 : 1h 50mn\nBit rate mode                            : Constant\nBit rate                                 : 448 Kbps\nChannel(s)                               : 6 channels\nChannel positions                        : Front: L C R, Side: L R, LFE\nSampling rate                            : 48.0 KHz\nBit depth                                : 16 bits\nCompression mode                         : Lossy\nStream size                              : 354 MiB (17%)\nLanguage                                 : French\nDefault                                  : Yes\nForced                                   : No\n","torrent":{"xt":"urn:btih:3654f1a46660abc9f7ec85cfc74606ae52ba79d0","amp;dn":"Love.Is.the.Perfect.Crime.%5BL.Amour.Est.un.Crime.Parfait%5D.2013.BR","amp;tr":["udp%3A%2F%2Ftracker.openbittorrent.com%3A80","udp%3A%2F%2Fopen.demonii.com%3A1337","udp%3A%2F%2Ftracker.coppersurfer.tk%3A6969","udp%3A%2F%2Fexodus.desync.com%3A6969"],"infoHash":"3654f1a46660abc9f7ec85cfc74606ae52ba79d0","infoHashBuffer":{"type":"Buffer","data":[54,84,241,164,102,96,171,201,247,236,133,207,199,70,6,174,82,186,121,208]},"announce":[],"urlList":[]}}